<svg xmlns="http://www.w3.org/2000/svg" viewBox="-0.5 -0.5 400 400" height="400" width="400"><g fill="#000000"><path d="M163.271 301.006c-4.768 -0.818 -4.389 4.11 -0.279 5.406 6.404 1.855 4.389 -4.728 0.279 -5.406zm3.152 4.229c-1.556 1.796 -6.743 0 -5.825 -3.192a3.671 3.671 0 0 1 5.825 3.192zm7.701 11.711a4.369 4.369 0 0 0 -1.257 -4.269c-7.541 -7.741 -3.791 10.733 1.257 4.269zm-1.257 0.698c-2.414 1.237 -4.469 -3.99 -3.212 -6.105 2.015 -0.319 5.606 4.369 3.212 6.105zm3.152 12.349c3.99 0.279 3.491 -7.501 0 -8.798 -4.329 0.339 -2.733 8.179 0 8.798zm-1.995 -5.985c1.636 -5.127 4.748 0.658 3.85 3.252 -0.978 5.466 -4.668 -0.579 -3.791 -3.292zm4.209 12.11c-3.252 -0.239 -5.526 7.302 -1.496 7.401 2.913 -0.219 4.608 -7.162 1.496 -7.401zm0.499 4.848c-2.653 4.549 -4.888 0 -2.394 -3.192 2.813 -3.352 3.651 1.536 2.394 3.192z" stroke-width="1"></path><path d="M158.543 293.764c-0.16 0 -0.299 0.16 -0.14 0.239a50.374 50.374 0 0 1 23.701 23.381A60.628 60.628 0 0 1 185.535 326.382a0.18 0.18 0 0 0 0.359 0c-2.613 -12.13 -12.329 -25.775 -27.351 -32.618zm44.449 -10.115c0 0.279 0.459 0.339 0.499 0 2.993 -19.411 -14.464 -36.768 -33.157 -37.686 -0.2 0 -0.2 0.299 0 0.319 21.327 2.554 34.992 19.85 32.658 37.366zm-13.626 -32.658c4.648 1.835 4.289 -2.494 1.337 -3.551 -6.643 -3.691 -7.162 0.559 -1.337 3.551zm-3.691 -4.309c0.638 -1.017 3.411 0.618 5.107 1.496 5.506 4.608 -4.948 2.314 -5.107 -1.496z" stroke-width="1"></path><path d="M197.704 255.799c0.998 2.414 7.661 5.466 5.706 0.519 -0.818 -2.953 -7.9 -6.125 -5.706 -0.519zm0.2 -1.995c1.995 -1.995 5.347 2.474 5.426 4.309 -1.037 1.955 -6.204 -2.494 -5.426 -4.389zm9.676 15.521c3.152 0.958 3.132 -5.367 0.459 -6.524 -4.549 -1.716 -2.873 5.666 -0.459 6.524zm-1.716 -5.586c2.115 -2.753 4.369 2.434 3.252 4.469 -1.855 2.414 -3.85 -2.613 -3.252 -4.429zm3.711 13.406c-0.14 3.012 4.768 5.666 4.329 0.459 -0.439 -4.529 -5.207 -5.546 -4.329 -0.459zm1.217 -2.873c2.155 -0.539 2.973 4.289 2.214 5.387 -2.334 1.636 -4.09 -4.249 -2.214 -5.387zm1.097 12.828c-3.771 4.808 0.818 9.097 3.99 4.17 2.055 -3.112 -1.137 -8.399 -3.99 -4.17zm1.277 -0.539c2.234 -1.995 3.751 2.374 1.995 4.708 -3.411 4.369 -5.965 -0.978 -1.995 -4.708zm-1.117 19.232c2.454 -2.334 1.337 -9.556 -1.337 -7.302 -4.13 2.594 -2.873 11.332 1.337 7.302zm-1.177 0.319c-4.19 1.177 -1.636 -7.082 0.758 -7.561 2.075 0.02 1.137 6.484 -0.758 7.561zm-5.945 9.476c0.579 7.122 4.688 3.212 3.99 -2.294 -1.436 -4.07 -4.269 -1.057 -3.99 2.294zm1.157 -2.534c2.374 -3.99 2.993 4.429 0.818 5.746 -2.075 -0.12 -1.416 -4.489 -0.818 -5.746zm-0.279 19.79c2.155 1.017 2.434 -2.673 2.454 -4.728 -1.237 -8.299 -6.923 0.898 -2.454 4.728zm-1.037 -3.192c-0.858 -3.032 1.995 -6.583 2.853 -2.534 0.479 3.85 -1.217 8.319 -2.853 2.534zm4.309 8.539c-2.813 -4.229 -4.469 2.434 -2.913 4.848 2.454 2.354 4.11 -2.095 2.913 -4.848zm-0.738 4.449c-4.209 2.933 -1.776 -10.853 0.479 -3.052a4.429 4.429 0 0 1 -0.479 3.052zm-8.638 -7.102c-2.953 -0.239 -3.172 3.431 -2.873 5.446 2.294 7.362 9.077 -4.249 2.873 -5.446zm1.995 2.554c0.419 1.397 -2.195 6.823 -4.19 3.711 -1.157 -3.232 1.995 -8.638 4.19 -3.711zm-2.374 -5.766c2.613 -0.299 3.252 -5.746 1.656 -7.382 -2.993 -2.075 -5.027 7.062 -1.656 7.382zm-1.197 -3.252c-0.658 -2.274 2.913 -6.384 3.152 -1.716 0.399 2.753 -2.514 7.202 -3.152 1.815zm2.574 -16.838c-3.611 -0.918 -3.99 7.601 0 7.721 2.554 -0.758 2.793 -6.743 0 -7.721zm0.678 6.424c-1.995 2.514 -3.771 -2.913 -2.653 -4.928 2.294 -4.05 4.349 2.833 2.653 4.928zm3.272 -17.277c0.239 -5.785 -3.83 -2.214 -3.392 1.456 0.878 3.771 3.212 2.853 3.392 -1.456zm-0.758 1.875c-0.738 3.99 -3.252 -1.397 -1.317 -3.571 1.756 -2.773 1.676 1.676 1.317 3.551zm1.756 -12.668c1.736 1.057 3.591 -3.751 1.995 -5.347 -3.312 -2.993 -4.15 4.269 -1.995 5.347zm-0.559 -4.269c1.696 -3.631 4.209 2.454 0.998 3.81a3.99 3.99 0 0 1 -0.998 -3.81zm19.072 -45.765a32.758 32.758 0 0 1 7.162 5.646 27.312 27.312 0 0 1 0.818 35.91c-0.18 0.219 0.12 0.519 0.319 0.319a28.07 28.07 0 0 0 6.743 -18.234 27.451 27.451 0 0 0 -14.803 -24.1 0.239 0.239 0 0 0 -0.239 0.459zm-3.611 -12.509c-0.698 1.995 4.529 5.626 5.626 2.554 0.599 -2.574 -4.209 -5.925 -5.626 -2.554zM223.44 227.43c1.097 0.279 2.514 2.195 1.995 3.411 -1.716 2.175 -7.661 -4.289 -1.995 -3.411zm7.701 8.898c-0.698 0.738 0.16 2.753 1.017 3.771a7.342 7.342 0 0 0 2.454 1.995 2.474 2.474 0 0 0 2.673 -1.197c0.938 -2.314 -4.848 -5.985 -6.145 -4.569zm5.027 4.509a1.137 1.137 0 0 1 -0.658 0.698c-0.918 0.359 -2.214 -0.898 -2.793 -1.756s-1.277 -2.753 -0.778 -3.092 4.708 2.494 4.229 4.15zm4.768 9.815c3.092 5.127 6.823 2.294 4.209 -2.334s-8.519 -3.81 -4.209 2.334zm-0.638 -4.549c2.574 -1.317 7.222 4.828 4.11 6.803 -1.696 -0.479 -5.247 -4.289 -4.11 -6.803zm4.529 14.823c-1.317 1.576 -0.339 9.377 2.514 7.581 3.132 -2.594 2.035 -10.933 -2.514 -7.581zm1.676 -0.259c3.771 1.017 1.995 6.903 0 7.601 -1.596 -0.758 -2.953 -7.302 0 -7.601zm-1.915 13.267c-2.534 -0.658 -4.768 6.224 -2.274 7.401 2.394 0.239 4.768 -6.025 2.274 -7.401zm0.658 2.693c0 0.599 -2.594 6.244 -3.431 3.252 -0.419 -2.075 2.374 -9.037 3.431 -3.252zM148.129 303.24c-0.419 -1.855 -6.125 -4.11 -4.19 0 0.618 1.855 4.489 2.853 4.19 0zm-0.559 0.579c-0.559 1.676 -4.549 -0.638 -3.292 -2.394A3.072 3.072 0 0 1 147.63 303.839zm3.81 10.354c4.09 2.893 4.988 -1.995 2.095 -4.409 -3.272 -2.693 -4.05 2.274 -2.095 4.409zm-0.299 -4.509c0.998 -1.117 2.973 1.117 3.212 2.195 1.796 5.087 -5.167 1.875 -3.212 -2.195zm8.379 13.626c1.157 -3.132 -2.993 -6.883 -5.327 -3.571 -1.835 3.591 3.471 8.579 5.327 3.571zm-1.995 1.516c-1.476 0.878 -5.207 -3.89 -2.334 -5.606s5.686 3.651 2.474 5.606zm4.449 11.511c2.334 -2.294 0.219 -9.297 -3.99 -5.985 -2.314 2.594 0.399 8.379 3.99 5.985zm-3.112 -0.599c-1.995 -1.576 -1.337 -8.259 2.673 -4.708 1.736 1.855 0.599 6.963 -2.673 4.708zm4.608 7.721c-3.451 -3.292 -6.204 3.611 -3.571 5.985 4.908 3.491 5.746 -4.529 3.571 -5.985zm0.778 3.791c-0.778 3.99 -5.646 2.653 -4.728 -1.696s5.127 -1.855 4.728 1.696zm-16.16 -30.883a0.259 0.259 0 0 0 -0.479 0.2c6.185 14.424 6.424 35.671 6.324 38.683 0 0.239 0.359 0.219 0.379 0 0.499 -10.294 -1.337 -28.648 -6.224 -38.883zM90.713 344.138a16.379 16.379 0 0 1 -7.362 0.2 19.172 19.172 0 0 0 2.334 -9.975c-0.299 -9.975 -7.162 -15.8 -12.888 -15.222 -4.489 0.479 -7.581 4.389 -11.97 5.187a5.307 5.307 0 0 1 -5.885 -7.521c0.259 -0.519 -0.499 -0.958 -0.778 -0.459a9.696 9.696 0 0 0 -3.392 8.239c2.195 9.396 10.194 7.401 16.239 4.728 4.15 -0.938 6.723 1.377 5.885 6.145a19.252 19.252 0 0 1 -6.364 10.693c-0.279 0.239 0 0.758 0.399 0.519C71.82 343.14 76.788 333.265 71.82 329.175c-3.352 -2.274 -7.262 0.539 -10.514 1.496a7.621 7.621 0 0 1 -7.621 -12.688 6.464 6.464 0 0 0 2.913 6.524c3.87 2.314 8.199 -0.758 11.471 -2.673a10.953 10.953 0 0 1 6.125 -1.995 9.815 9.815 0 0 1 5.606 2.594c5.985 5.167 6.703 14.982 3.092 21.825a26.613 26.613 0 0 0 -4.349 -0.339c-6.125 0.16 -12.409 5.247 -18.454 1.995 0.978 2.773 8.299 1.397 11.092 0.359 6.583 -2.115 7.002 -1.995 12.987 -1.137a12.369 12.369 0 0 0 6.763 -0.539c0.279 -0.08 0.08 -0.559 -0.219 -0.459zM113.715 345.135a4.249 4.249 0 0 0 2.214 -0.938 0.279 0.279 0 0 0 -0.279 -0.479 7.82 7.82 0 0 1 -5.027 0.658 5.985 5.985 0 0 1 11.132 -1.656 14.065 14.065 0 0 1 -2.594 -0.419 0.2 0.2 0 0 0 -0.12 0.379c6.763 2.095 10.673 -1.077 12.908 -1.397s5.047 1.436 6.982 0c0.219 -0.16 0 -0.559 -0.279 -0.459 -2.155 0.758 -3.99 -0.339 -6.105 -0.239 0 -4.489 0.16 -7.84 -2.314 -11.79 -11.132 -16.658 -35.391 -5.147 -31.222 12.828a6.943 6.943 0 0 0 -3.771 1.217 0.2 0.2 0 1 0 0.2 0.339c5.766 -3.571 11.751 3.052 18.274 1.955zm-14.085 -3.591a22.444 22.444 0 0 1 -0.219 -5.546 16.319 16.319 0 0 1 9.676 -13.207c11.132 -4.908 24.279 3.392 22.923 17.775 -2.773 0.339 -4.509 2.354 -9.596 2.195a6.384 6.384 0 0 0 -6.843 -3.99 6.623 6.623 0 0 0 -5.486 5.526c-3.571 -0.738 -6.703 -2.773 -10.514 -2.833zM145.037 371.07a68.03 68.03 0 0 1 -34.553 -5.865c-1.157 -0.559 -2.813 -1.576 -2.294 -3.092 0.279 -0.818 3.212 -3.611 9.576 -4.728 0.239 0 0.14 -0.399 0 -0.359 -4.269 0.718 -12.13 3.531 -9.676 7.022a8.519 8.519 0 0 0 3.631 2.414 66.493 66.493 0 0 0 33.237 5.147c0.379 -0.04 0.399 -0.539 0.08 -0.539z" stroke-width="1"></path><path d="M72.139 355.689c-6.583 0.499 -18.573 2.354 -28.648 -3.272a4.17 4.17 0 0 1 -1.995 -3.471c0.2 -1.696 1.875 -2.773 3.212 -3.531a17.217 17.217 0 0 1 10.534 -2.115c0.279 0 0.279 -0.419 0 -0.459a17.536 17.536 0 0 0 -9.975 1.696c-7.641 3.711 -3.771 8.718 2.115 10.514 7.86 2.693 16.539 2.095 24.838 1.097 0.219 -0.02 0.239 -0.499 -0.08 -0.459zm-2.574 -47.262c0.279 0.2 0.618 -0.259 0.379 -0.499 -3.571 -3.511 -9.576 -2.314 -10.374 -2.175a30.364 30.364 0 0 0 0.718 -5.706c0.818 -0.419 8.958 -5.367 6.504 -8.938a43.75 43.75 0 0 0 1.855 -20.868 9.017 9.017 0 0 0 2.853 -3.272c0.239 -0.459 -0.698 -0.419 -1.217 -0.279a5.706 5.706 0 0 0 0.678 -1.995c0 -0.16 -0.18 -0.259 -0.319 -0.239a2.893 2.893 0 0 0 -1.017 0.419c0.539 -1.995 -0.279 -2.274 -1.397 -0.638 0 -0.519 -0.12 -0.938 -0.658 -0.858s-1.357 1.796 -1.596 2.234a3.431 3.431 0 0 0 -1.436 -1.337c-0.219 -0.12 -0.539 0 -0.439 0.339 3.012 7.98 -3.99 20.568 -3.99 20.628 -0.379 -0.339 -0.718 -0.758 -0.978 -0.359a9.416 9.416 0 0 1 -5.367 3.691c0 -1.456 -0.638 -6.364 -0.978 -10.175 0.12 0.14 1.257 1.337 1.796 1.097a1.776 1.776 0 0 0 0.758 -0.618 3.771 3.771 0 0 0 4.788 1.676c0.299 -0.319 0 -0.718 -0.16 -0.998a5.227 5.227 0 0 0 -4.229 -1.636 2.594 2.594 0 0 0 0 -1.217 4.09 4.09 0 0 0 3.012 -4.569c-0.16 -0.818 -2.973 1.277 -3.451 3.531 -0.698 -0.998 -1.995 -0.918 -2.733 0.399a5.406 5.406 0 0 0 -1.476 -3.99 7.222 7.222 0 0 0 -10.374 0.658 7.142 7.142 0 0 0 -0.938 7.501 2.374 2.374 0 0 0 -0.878 3.372 1.636 1.636 0 0 0 0.838 0.878 11.352 11.352 0 0 0 0.818 5.307 6.244 6.244 0 0 0 2.953 2.993c0.958 5.367 8.718 4.748 8.758 -1.297a5.805 5.805 0 0 0 1.397 -2.214 3.471 3.471 0 0 0 1.137 -0.239 9.297 9.297 0 0 1 2.534 2.474c-5.187 10.793 -17.197 9.975 -19.95 1.995a13.546 13.546 0 0 1 3.032 -3.172c0.18 -0.16 0 -0.419 -0.259 -0.319 -5.307 2.873 -5.666 9.975 -5.746 10.933a16.818 16.818 0 0 1 -2.274 -1.815 12.828 12.828 0 0 1 1.436 -6.105 8.838 8.838 0 0 1 5.446 -3.85s0.758 -0.16 0.618 -0.279a31.022 31.022 0 0 1 -5.985 -4.688c-0.2 -0.219 -0.439 0 -0.698 0.16a32.718 32.718 0 0 1 -1.995 -15.721c0.399 -0.16 2.214 -2.374 1.496 -3.192 -0.559 -0.479 -1.377 0.319 -1.496 0.499a5.626 5.626 0 0 0 -0.878 -3.012 0.259 0.259 0 0 0 -0.439 0c-0.479 1.037 0.2 1.137 -1.077 -0.738 -0.1 -0.16 -0.419 -0.18 -0.459 0a5.426 5.426 0 0 0 0 1.397 3.172 3.172 0 0 0 -1.037 -0.878 0.259 0.259 0 0 0 -0.359 0.279c0 0.439 0.16 0.898 0.259 1.337 0 0 -0.838 -0.459 -0.938 0.419 0 0.279 1.137 3.711 1.137 3.711 -1.995 4.549 -3.89 17.955 -0.18 21.366a11.97 11.97 0 0 0 -0.898 1.337c0 0.12 3.771 7.98 8.259 10.194a55.86 55.86 0 0 0 0.299 8.16 10.554 10.554 0 0 0 -11.451 1.875c-0.16 0.18 0.12 0.459 0.299 0.279 5.067 -4.908 12.209 -0.16 18.234 0s20.768 -9.117 27.83 -3.252zm-13.007 -34.514a4.688 4.688 0 0 1 1.536 -1.257 3.471 3.471 0 0 1 -2.613 3.531 5.307 5.307 0 0 1 1.077 -2.274zm-1.057 4.668a5.307 5.307 0 0 1 1.815 0c2.534 0.838 2.434 1.556 2.354 1.596a3.87 3.87 0 0 1 -4.17 -1.596zm-1.636 -2.973c1.257 0 1.277 1.397 1.317 1.536 0.12 0.698 -0.16 2.314 -1.157 1.796a5.207 5.207 0 0 1 -1.117 -1.257c-0.1 -0.12 -0.678 -1.875 0.958 -2.075zm-13.965 0a6.504 6.504 0 0 1 5.666 -4.708 5.367 5.367 0 0 1 6.304 6.145 20.828 20.828 0 0 1 -12.15 0.958 7.561 7.561 0 0 1 0.18 -2.394zm3.99 17.476a8.08 8.08 0 0 0 7.761 -1.037 3.99 3.99 0 0 1 -7.761 1.037zm8.818 -8.838a5.985 5.985 0 0 1 -3.81 2.893 1.337 1.337 0 0 0 -0.599 -1.476 1.656 1.656 0 0 0 -1.995 1.616c-0.439 0 -4.848 -0.459 -6.125 -2.973a3.212 3.212 0 0 1 -0.798 -0.958 2.713 2.713 0 0 1 -0.239 -0.958c0 -1.277 1.077 -1.616 1.177 -1.995a13.586 13.586 0 0 0 -0.339 -1.875 18.713 18.713 0 0 0 12.07 -0.938c0.04 0.499 0.638 6.663 0.638 6.663zm-25.137 -15.641c0 -0.18 -1.037 -3.83 -1.037 -3.85s0 -0.1 0.14 0c0.299 0.379 0.559 0.818 0.818 1.217s0.618 0.1 0.499 -0.2a13.666 13.666 0 0 1 -0.738 -2.374 5.007 5.007 0 0 1 1.257 1.995c0.12 0.319 0.618 0.18 0.499 -0.14a5.865 5.865 0 0 1 -0.419 -2.354 11.97 11.97 0 0 1 0.978 2.115c0.12 0.299 0.579 0.18 0.479 -0.12a2.334 2.334 0 0 1 0 -1.377 6.105 6.105 0 0 1 0.519 2.853 0.519 0.519 0 0 0 0.299 0.319c0.379 0 0.898 -1.177 1.277 -1.057s0 0.239 0 0.359c0 0.798 -1.536 2.294 -1.596 2.414a27.212 27.212 0 0 0 2.214 15.96 23.381 23.381 0 0 0 -5.466 4.928c-0.898 -1.037 -4.19 -6.005 0.259 -20.688zm-0.978 22.464a22.524 22.524 0 0 1 6.863 -6.404c0.579 0.618 1.197 1.197 1.835 1.756a10.793 10.793 0 0 0 -6.982 7.98 30.344 30.344 0 0 1 -1.736 -3.332zm5.067 7.541a23.94 23.94 0 0 1 -2.973 -3.671 10.095 10.095 0 0 1 7.242 -7.98 28.728 28.728 0 0 0 2.374 1.656 9.217 9.217 0 0 0 -6.663 9.995zm27.351 7.262a28.449 28.449 0 0 0 -3.551 0.978 30.344 30.344 0 0 0 3.83 -2.214c-0.12 0.399 -0.2 0.818 -0.299 1.237zm5.985 -40.558c0 0.339 1.157 0.918 1.217 0.838 0.439 -0.618 1.217 -2.294 1.516 -2.254s-0.1 1.277 -0.259 1.636 0.319 0.439 0.459 0.2 1.097 -1.995 1.456 -1.995 -0.499 1.995 -0.718 2.334 0.279 0.559 0.439 0.279a2.534 2.534 0 0 1 1.337 -1.197 4.249 4.249 0 0 1 -1.077 1.995c-0.18 0.2 0 0.599 0.319 0.399a2.514 2.514 0 0 1 1.277 -0.479 21.785 21.785 0 0 1 -2.693 3.032c1.796 9.337 -1.357 18.673 -1.895 20.549 -0.599 -0.539 -4.569 -3.99 -5.985 -5.187 0.02 0.02 6.424 -9.795 4.549 -20.13zm-5.526 20.189c1.337 1.097 5.387 4.628 6.105 5.267 1.317 1.197 1.995 1.496 0.439 3.711a25.935 25.935 0 0 0 -7.761 -7.621 13.107 13.107 0 0 0 1.157 -1.357zm-1.496 1.596a30.823 30.823 0 0 1 7.741 7.78 10.194 10.194 0 0 1 -2.993 3.072 12.788 12.788 0 0 0 -6.324 -9.736 9.776 9.776 0 0 0 1.456 -1.117zm-2.653 1.636 0.738 -0.339a12.888 12.888 0 0 1 6.244 9.875 15.661 15.661 0 0 1 -1.995 1.277 13.227 13.227 0 0 0 -5.047 -10.813zm-18.174 5.007c2.334 8.259 15.162 9.037 20.608 -1.995a13.267 13.267 0 0 1 1.995 6.364c-6.843 6.623 -19.671 8.299 -24.359 0.18a9.456 9.456 0 0 1 1.696 -4.549zm-1.995 5.207c3.531 6.982 16.379 7.501 24.678 0 0 0.319 -0.2 3.651 -0.419 4.888 -9.756 6.963 -19.591 5.426 -24.618 -0.18a24.1 24.1 0 0 1 0.359 -4.708zm-0.359 5.147a16.12 16.12 0 0 0 16.758 4.19c-7.98 3.152 -9.975 2.853 -16.299 1.337 -0.219 -1.815 -0.399 -3.671 -0.459 -5.526z" stroke-width="1"></path><path d="M69.326 294.103c0.838 -0.2 6.324 -2.195 7.002 -2.514 2.095 -0.978 0.678 -3.671 -1.416 -3.411a7.242 7.242 0 0 0 -5.845 5.227c0 0.12 0 0.758 0.259 0.698zm4.668 -4.828a2.773 2.773 0 0 1 1.835 -0.16 1.157 1.157 0 0 1 0.818 1.177c0 0.519 -0.678 0.758 -1.117 0.918s-4.608 1.696 -5.985 2.294a7.98 7.98 0 0 1 4.449 -4.229zM15.96 294.981a1.835 1.835 0 0 0 -1.197 2.693c1.157 2.494 4.728 0 7.042 2.693 0.18 0.2 0.559 -0.239 0.519 -0.319 -1.137 -3.511 -4.369 -5.426 -6.364 -5.067zm0.259 3.112c-0.878 -0.279 -1.456 -1.636 -0.599 -2.274s2.673 0.219 3.611 0.938a8.319 8.319 0 0 1 1.995 2.135c-1.895 -1.137 -3.611 -0.379 -4.948 -0.798zM49.276 275.51c0.559 0.818 1.197 -1.037 0 -0.419a0.359 0.359 0 0 0 0 0.419zm-4.948 -2.474c0.18 0.319 1.077 0.2 0.738 -0.519 -0.16 -0.419 -1.177 -0.18 -0.738 0.519zM45.885 275.31c0.658 0.658 1.217 -1.197 0 -0.638a0.439 0.439 0 0 0 0 0.638zm1.995 -1.995c0.818 0.219 0.479 -1.835 -0.279 -0.539 0.08 0.18 -0.04 0.18 0.279 0.539zm-3.531 4.13c0.579 0.419 1.177 -0.898 0 -0.618a0.359 0.359 0 0 0 0 0.618zm0.698 3.392a0.299 0.299 0 0 0 -0.499 0.2c0 0.2 0.1 1.197 0.14 1.257a0.259 0.259 0 0 0 0.479 0 11.97 11.97 0 0 0 -0.12 -1.456zm4.988 -0.638s0 -0.2 -0.299 -0.299a0.299 0.299 0 0 0 -0.299 0.299v1.217c0 0.04 0.2 0.499 0.559 0 0.1 -0.12 0.06 -0.998 0.04 -1.217zm-2.434 0.878c-0.1 -0.2 -0.439 0 -0.359 0.16a9.177 9.177 0 0 1 0.559 2.294c-0.579 0 -0.579 0.459 -0.359 0.599a1.277 1.277 0 0 0 0.818 0c0.18 0 0.259 -0.239 0.219 -0.399a26.154 26.154 0 0 0 -0.878 -2.653zm223.58 63.142c-3.332 -0.279 -5.706 8.778 -2.494 9.177 3.232 -0.1 6.224 -7.78 2.494 -9.177zm1.017 3.591c0.299 1.776 -3.571 7.661 -4.489 3.651s4.608 -11.092 4.489 -3.651zm4.19 -15.601c-2.334 -0.499 -3.072 1.995 -3.99 3.83s0.219 4.489 2.554 3.372a5.865 5.865 0 0 0 1.436 -7.202zm0.1 1.636c0.12 2.913 -2.354 7.382 -3.99 3.99 -0.439 -1.237 3.471 -8 3.99 -3.99zm6.005 -14.165c-2.633 0.14 -6.763 8.858 -1.317 6.444 1.516 -0.579 4.868 -6.643 1.317 -6.444zm0.878 2.394c-0.14 1.596 -5.506 7.022 -3.89 1.656 0.279 -1.716 4.968 -5.706 3.81 -1.656zm-0.399 -8.299a86.543 86.543 0 0 0 -19.511 35.591c0 0.2 0.259 0.279 0.319 0a91.411 91.411 0 0 1 13.845 -28.169c1.796 -2.454 3.711 -4.788 5.646 -7.122a0.2 0.2 0 0 0 -0.299 -0.299zm47.7 38.583a0.359 0.359 0 0 0 0.698 0 8.898 8.898 0 0 0 -9.197 -9.177 9.576 9.576 0 0 0 -9.696 9.975c0 0.239 0.419 0.18 0.419 0 0 -2.773 3.651 -9.177 9.257 -9.077 4.429 -0.04 7.94 2.673 8.519 8.279z" stroke-width="1"></path><path d="M347.429 351.639c0.18 -0.299 -0.219 -0.539 -0.459 -0.359a6.703 6.703 0 0 1 -5.107 2.434c5.227 -26.873 -23.461 -40.798 -38.783 -18.254a19.132 19.132 0 0 0 -1.157 17.416c-0.798 0.2 -3.591 1.397 -8.16 -1.616 -0.2 -0.16 -0.499 0.12 -0.299 0.299a9.416 9.416 0 0 0 5.406 2.334c3.83 0.379 6.304 -2.274 10.075 -1.097 1.097 0.359 2.155 0.878 3.252 1.217A4.529 4.529 0 0 0 317.205 353.115c0.18 -0.259 -0.18 -0.599 -0.419 -0.419a5.446 5.446 0 0 1 -5.307 0.18 10.873 10.873 0 0 0 -9.097 0 0.219 0.219 0 0 0 0 -0.1c-6.663 -16.539 12.189 -32.419 26.913 -26.314 9.776 4.768 14.085 16.957 11.691 27.371 -3.332 0 -5.127 -2.354 -7.88 -1.676 -1.616 0.379 -3.571 1.995 -5.187 0.738 -0.2 -0.16 -0.459 0.18 -0.259 0.339 1.436 1.257 3.272 0.399 4.848 -0.14 2.474 -0.858 3.691 0.279 5.825 1.057a7.98 7.98 0 0 0 9.097 -2.514zm17.217 -0.778a0.319 0.319 0 0 0 -0.379 0.499c1.197 1.117 3.012 2.254 2.913 4.11s-1.995 3.052 -3.411 3.85a33.656 33.656 0 0 1 -18.773 4.17c-0.279 0 -0.279 0.419 0 0.439a34.154 34.154 0 0 0 13.526 -1.516c3.272 -1.317 8.519 -2.653 9.496 -6.763a5.406 5.406 0 0 0 -3.372 -4.788zm-72 2.673a0.259 0.259 0 0 0 -0.379 0.379c1.377 1.756 3.99 1.995 5.127 4.11 1.297 2.394 -1.855 3.99 -3.511 4.868a38.903 38.903 0 0 1 -21.546 4.748c-0.259 0 -0.259 0.379 0 0.399a38.224 38.224 0 0 0 22.384 -4.748c1.696 -0.978 4.17 -2.354 3.691 -4.688 -0.539 -2.813 -3.91 -3.491 -5.766 -5.067zm-33.755 10.673c-15.561 8.399 -29.726 -1.815 -45.885 -1.037 -0.219 0 -0.219 0.339 0 0.319 15.262 -0.519 31.92 10.254 46.124 1.197a0.279 0.279 0 0 0 -0.239 -0.479zm50.753 -121.316s0.758 -1.257 0.758 -1.317a0.299 0.299 0 0 0 -0.439 -0.259s-0.698 1.077 -0.798 1.297a0.279 0.279 0 1 0 0.479 0.279zm-4.409 -2.274s0.559 -0.978 0.459 -1.257a0.259 0.259 0 0 0 -0.299 -0.14 5.267 5.267 0 0 0 -0.718 1.317 0.279 0.279 0 0 0 0.559 0.08z" stroke-width="1"></path><path d="M388.786 246.343c-8.419 0 -66.513 1.137 -66.553 1.177a36.528 36.528 0 0 0 -2.733 -6.284c0.219 0 1.656 -0.519 1.796 -0.998s-0.319 -1.097 -0.758 -1.476a20.269 20.269 0 0 0 -4.569 -2.993 6.663 6.663 0 0 0 0.339 -6.544 5.985 5.985 0 0 0 -5.985 -2.973 7.661 7.661 0 0 0 -5.526 3.99c-0.2 0.359 -0.459 0.798 -0.878 0.798 -0.12 0 -1.676 -0.479 -2.354 -0.698a1.017 1.017 0 0 0 -1.237 -0.918c-0.778 0 -1.177 0.658 -1.536 1.257 -3.052 -0.718 -3.252 0.579 -3.272 0.698 0 0.579 0.898 1.736 1.815 1.077 -2.434 1.995 -5.985 2.494 -10.633 7.86 -3.591 -3.99 -7.721 -8.259 -8.718 -13.566l6.125 -11.97A13.367 13.367 0 0 0 303.24 209.475a15.202 15.202 0 0 0 25.057 -4.549 15.761 15.761 0 0 0 24.14 -5.466c7.302 8.339 21.506 4.11 22.065 -6.723 2.374 -0.698 4.708 -1.436 7.042 -2.214a0.299 0.299 0 0 0 -0.16 -0.559c-42.254 11.132 -66.773 15.96 -83.79 18.653 0.499 -0.259 5.666 -3.431 7.222 -7.701a18.434 18.434 0 0 0 0.798 -9.975c-0.778 -5.287 -1.636 -5.646 -3.072 -9.377a11.032 11.032 0 0 1 -0.838 -4.808c3.072 0.479 3.99 3.89 5.626 6.244 6.344 9.097 21.805 9.616 25.137 -1.556 1.117 -4.409 -1.397 -9.257 -4.469 -10.534a7.282 7.282 0 0 0 1.097 -1.177c2.713 1.237 5.387 2.554 8.08 3.83 0.559 0.279 1.057 -0.559 0.479 -0.838 -1.636 -0.838 -4.888 -2.633 -4.968 -2.753 -5.307 -8.938 -10.574 -18.135 -16.1 -27.132a11.97 11.97 0 0 0 5.406 0c0.2 -0.16 0.239 -0.559 0 -0.618 -0.818 -0.14 -5.127 -0.319 -5.167 -0.319 3.591 -7.98 7.621 -16.179 11.252 -24.419 0.12 -0.299 -0.279 -0.539 -0.439 -0.259q-1.317 2.474 -2.454 5.007c-2.494 -1.137 -5.586 -6.943 -6.703 -8.08 -2.933 -2.115 -6.165 2.135 -11.012 1.037 -4.549 -1.037 -4.688 -5.446 -10.574 -8.399a18.633 18.633 0 0 0 -8.219 -1.995c16.838 6.264 7.88 21.307 20.07 18.972a9.377 9.377 0 0 1 6.324 1.636c2.474 1.556 3.99 5.526 5.067 7.242 -0.12 0.259 -2.893 6.185 -4.11 8.878a11.571 11.571 0 0 1 -3.511 -2.234c-1.057 0.399 1.796 2.434 2.713 2.893 -0.798 0.259 -25.556 7.202 -27.93 7.98a53.666 53.666 0 0 1 -4.948 -2.155c-0.219 0 -0.399 0.2 -0.2 0.319 1.496 0.818 4.509 2.454 4.489 2.474A8.838 8.838 0 0 0 291.27 159.6a9.297 9.297 0 0 0 9.496 -0.778 8.718 8.718 0 0 0 3.471 6.324l-1.576 2.893c-7.98 0.359 -11.352 9.277 -7.98 17.057l-7.681 15.142a79.162 79.162 0 0 0 -11.79 6.583c-11.072 8.559 -14.583 22.663 -8.938 33.775l-3.551 6.125c-1.117 0 -13.546 -0.319 -14.344 -0.239 -6.683 -10.115 -18.953 -15.162 -25.795 -25.297l2.254 -5.666a12.908 12.908 0 0 0 9.855 -2.833 10.095 10.095 0 0 0 4.549 7.042 9.776 9.776 0 0 0 12.868 -2.613l4.808 1.995c0.419 0.16 0.718 -0.559 0.319 -0.738 -1.636 -0.738 -23.621 -9.416 -29.506 -11.571l6.564 -15.581c11.451 -5.147 23.162 -13.965 25.596 -26.354a8.658 8.658 0 0 0 2.294 -1.995 7.262 7.262 0 0 0 5.486 6.703 9.716 9.716 0 0 0 9.556 -2.793c2.374 0.778 4.748 1.536 7.142 2.254a0.439 0.439 0 0 0 0.219 -0.838l-27.75 -9.077c2.334 -5.586 -3.751 -10.833 -6.145 -13.666l5.526 -16.279c4.329 -1.636 9.476 -2.534 13.785 -8.08 0 0.998 4.588 6.643 13.486 0.778 0.359 -0.279 -0.14 -0.798 -0.499 -0.519 -8.718 5.307 -12.409 0 -12.748 -0.499a32.957 32.957 0 0 0 1.995 -3.651c0.618 0.359 18.135 6.504 19.95 6.943 0.299 0 0.539 -0.399 0.219 -0.539 -1.596 -0.738 -19.172 -6.803 -19.95 -6.903a14.603 14.603 0 0 0 -5.985 -17.775l5.985 -19.431a6.524 6.524 0 0 0 6.863 -0.798 6.723 6.723 0 0 0 4.668 4.648 7.98 7.98 0 0 0 7.062 -2.394l1.197 0.339a0.339 0.339 0 0 0 0.18 -0.658c-0.599 -0.219 -1.217 -0.399 -1.835 -0.599 -3.392 -6.943 -10.254 -20.808 -10.254 -20.808a18.414 18.414 0 0 0 4.728 0.18 0.379 0.379 0 0 0 -0.1 -0.698c-0.359 -0.12 -3.651 -0.14 -4.329 -0.299 10.314 -27.112 9.835 -25.536 9.676 -25.935a0.618 0.618 0 0 0 -1.137 0l-1.416 3.431c-0.738 -1.416 -6.304 -5.367 -10.613 -4.888 -3.81 0.419 -5.885 3.99 -9.975 4.588 -4.768 0.479 -6.763 -3.99 -12.549 -6.703 -3.751 -1.756 -9.616 -3.032 -18.693 -0.479 1.995 1.237 7.98 1.636 11.771 3.85 4.928 2.913 6.244 9.257 9.835 10.514 7.062 2.454 10.214 -0.858 16.439 1.995a20.748 20.748 0 0 1 7.9 7.082L279.3 57.855a11.491 11.491 0 0 1 -3.192 -1.736c-0.259 -0.2 -0.638 0.14 -0.379 0.379a10.933 10.933 0 0 0 3.032 1.995c-6.863 3.83 -20.948 10.833 -20.948 10.833 -0.599 0 -3.531 -1.796 -3.671 -0.798l3.451 1.257a7.242 7.242 0 0 0 11.97 5.247 6.244 6.244 0 0 0 1.217 2.753l-7.421 19.631c-0.14 0 -15.84 -3.112 -10.593 -14.883a7.441 7.441 0 0 1 1.616 -2.175c0.419 -0.399 -0.219 -1.017 -0.618 -0.618a12.608 12.608 0 0 0 -3.99 20.828c2.993 2.833 7.002 3.392 10.155 5.985l-1.875 4.928c-2.753 -0.898 -25.516 -8.14 -27.93 -8.878 -0.239 0 -0.339 0.299 0 0.379l3.691 1.237a7.98 7.98 0 0 0 5.247 7.98c5.805 1.436 8.579 -1.875 8.958 -2.434a9.975 9.975 0 0 0 8.838 8.658c-8.598 5.107 -13.307 5.367 -16.898 9.975a13.406 13.406 0 0 0 -2.833 8.958c0.299 7.461 4.888 11.012 6.723 13.147l-1.397 3.791c-6.324 -2.374 -33.915 -9.975 -35.491 -10.414 -0.259 0 -0.359 0.319 -0.12 0.379l4.529 1.257a6.923 6.923 0 0 0 5.147 6.524 10.953 10.953 0 0 0 9.277 -2.175 10.274 10.274 0 0 0 14.184 9.257l-6.683 16.758c-8.379 4.908 -24.658 9.975 -28.13 22.803 -8.379 -2.653 -11.571 -3.85 -11.81 -3.99 -1.277 -9.975 -10.135 -16.658 -13.486 -25.716l4.628 -11.212c0.559 -0.259 1.995 -0.878 2.254 -0.958a15.96 15.96 0 0 0 10.115 -2.234 7.82 7.82 0 0 0 1.995 3.312 8.559 8.559 0 0 0 12.11 0c1.017 0.339 1.995 0.658 3.072 0.898a0.359 0.359 0 0 0 0.2 -0.698c-1.516 -0.638 -16.838 -4.748 -18.154 -4.928 10.214 -5.686 7.561 -19.212 -0.718 -23.481l4.209 -11.711a12.409 12.409 0 0 0 11.511 -2.175 10.274 10.274 0 0 0 18.274 3.372c0.758 0.239 1.496 0.459 2.254 0.638a0.399 0.399 0 0 0 0.219 -0.778c-0.638 -0.279 -2.175 -0.858 -2.653 -1.037 -4.229 -9.875 -12.888 -35.331 -13.706 -37.905a19.172 19.172 0 0 0 3.99 0c0.519 0 0.539 -0.798 0 -0.838a24.798 24.798 0 0 1 -4.489 -0.738c0.658 -1.696 8.1 -21.746 8.678 -23.84a0.2 0.2 0 0 0 -0.379 -0.12c-0.359 0.878 -0.698 1.756 -1.037 2.633 -5.187 -8.978 -13.945 -13.287 -22.943 -9.297 -2.953 1.416 -5.726 3.192 -9.137 2.753 -9.875 -1.277 -10.713 -17.237 -21.446 -20.09 -3.551 -0.958 -8.658 -0.599 -15.86 4.329a13.347 13.347 0 0 1 16.499 6.424c3.411 5.606 5.486 13.047 12.968 17.376 11.691 3.99 26.553 1.416 33.696 13.746 -0.698 0.439 -11.292 12.11 -42.174 25.297 -1.037 -0.439 -1.995 -0.838 -3.112 -1.217 -0.2 0 -0.319 0.239 -0.14 0.339l2.913 1.397a11.611 11.611 0 0 0 0.678 4.389c-5.067 3.292 -41.476 26.514 -71.481 38.843 1.397 -0.559 -0.12 -6.364 -0.998 -5.985 -0.319 0.16 -0.618 1.017 -0.638 1.057s-0.14 -0.499 -0.2 -0.758a0.359 0.359 0 0 0 -0.718 0.1v0.698l-0.399 -0.519a0.359 0.359 0 0 0 -0.658 0.18c-0.14 3.072 0.539 2.653 -0.678 1.995 -0.339 -0.2 -0.399 1.177 -0.379 1.337a9.357 9.357 0 0 1 0.479 3.81c-0.399 0.259 -36.209 14.224 -37.466 14.743a6.424 6.424 0 0 0 -3.471 -3.631c-2.733 -0.978 -5.586 0.778 -8.179 2.274Q45.885 153.615 42.374 150.523c-0.219 -0.2 -0.559 0.12 -0.339 0.339q3.392 3.092 6.683 6.264a6.803 6.803 0 0 1 -5.985 0.658 6.145 6.145 0 0 1 -0.599 -11.092c0.219 -0.12 -0.419 -0.519 -0.579 -0.499A8.658 8.658 0 0 0 35.91 160.378a10.613 10.613 0 0 0 13.706 2.274 14.803 14.803 0 0 1 3.132 -1.556c0.479 0.459 2.494 2.613 3.092 3.112 -0.459 1.995 -2.534 3.751 -3.691 5.845 -9.815 19.95 17.217 34.035 28.409 17.396a4.888 4.888 0 0 1 0.898 1.237c-0.2 4.389 -3.81 11.352 3.392 20.588 1.257 1.596 5.506 4.928 5.805 5.347 7.98 10.574 16.359 -3.312 12.549 24.618 -4.549 3.99 -10.813 8.419 -16.239 4.209 -3.83 -2.993 -4.469 -7.621 -5.825 -11.172 -4.588 -12.11 -21.047 -10.853 -27.232 0.499a17.696 17.696 0 0 0 -1.317 13.327c-1.357 -0.18 -39.262 0 -42.354 0.16 -0.379 0 -0.379 0.618 0 0.599 11.032 -0.379 42.454 -0.339 42.474 -0.359 1.776 6.105 8.379 11.97 15.242 9.975a8.12 8.12 0 0 0 5.686 -10.194 0.399 0.399 0 0 0 -0.778 0 6.444 6.444 0 0 1 -5.785 5.287 7.561 7.561 0 0 1 -7.481 -5.426c2.653 -0.1 15.401 -0.599 15.96 -0.778 0 0.898 0.219 1.776 0.379 2.653 1.855 10.673 13.247 15.162 22.883 11.97 -0.12 0.479 -0.219 0.958 -0.339 1.436a15.96 15.96 0 0 0 -13.347 15.96c0 6.903 4.928 12.748 10.992 15.78 1.177 2.673 6.683 14.184 15.78 17.775 -12.688 5.805 -31.92 2.454 -36.628 1.636 -0.559 -0.1 -0.798 0.738 -0.239 0.858 7.98 1.436 23.721 4.449 36.09 -1.476a14.145 14.145 0 0 1 5.985 -0.918 63.142 63.142 0 0 0 19.631 1.995c2.534 3.172 12.549 16.977 10.653 43.411a23.062 23.062 0 0 0 -12.11 2.653 0.2 0.2 0 1 0 0.2 0.339c11.152 -5.606 23.701 0.559 35.431 0.838 8.618 0.459 18.135 -2.713 26.553 1.077 0.359 0.16 0.678 -0.319 0.319 -0.519 -7.561 -4.209 -16.678 -1.297 -24.818 -1.317a67.511 67.511 0 0 0 -0.16 -11.87c4.13 -2.195 7.86 1.416 12.189 1.995a8.858 8.858 0 0 0 4.389 -0.359c0.2 0.579 0.439 1.157 0.678 1.716s0.918 0.12 0.758 -0.319c-0.319 -0.818 -0.579 -1.636 -0.818 -2.474 4.389 3.511 11.212 1.636 15.282 1.077 9.097 -1.277 13.147 2.115 19.551 4.249a13.247 13.247 0 0 0 11.451 -0.698c1.855 -1.077 3.85 -2.414 5.985 -1.157 1.357 0.798 3.032 2.374 4.648 1.716 -0.18 1.237 -0.339 2.474 -0.459 3.711a8.878 8.878 0 0 1 -3.99 -0.938 0.239 0.239 0 0 0 -0.239 0.399c5.506 3.012 11.391 -0.918 17.017 -1.257 4.748 -0.279 8.758 3.052 16.14 1.995a11.312 11.312 0 0 0 7.242 -3.411c0.18 -0.219 -0.16 -0.539 -0.399 -0.379 -1.995 2.294 -7.122 3.032 -7.481 3.072 -1.855 -18.174 13.327 -33.536 19.551 -45.506a21.746 21.746 0 0 0 17.516 0.399 11.332 11.332 0 0 1 4.968 -0.299c4.19 1.137 8.878 3.032 13.586 3.132a32.199 32.199 0 0 0 10.514 -1.017 0.259 0.259 0 0 0 -0.14 -0.519c-14.883 3.212 -19.85 -2.773 -27.272 -2.294a39.142 39.142 0 0 0 -4.509 1.117 23.741 23.741 0 0 1 -14.484 -0.878c2.733 -5.347 4.349 -11.491 2.195 -17.037a10.374 10.374 0 0 1 1.297 -1.377c2.973 1.776 4.588 4.888 6.464 7.661a22.544 22.544 0 0 0 18.913 9.676 19.491 19.491 0 0 0 16.778 -11.691c3.651 -8.798 -0.618 -17.696 0.2 -24.439a9.077 9.077 0 0 1 14.663 -6.524c2.873 2.434 2.494 8.16 -1.676 9.257a14.204 14.204 0 0 1 -2.993 0.519c-0.519 -0.1 -0.339 1.017 -0.239 1.077 11.731 4.289 15.282 -12.588 5.985 -17.576a19.511 19.511 0 0 0 -9.297 -2.773c-6.145 -0.439 -11.97 1.556 -15.242 6.883 -7.082 10.414 3.551 25.935 -9.057 28.09 -3.272 0.279 -6.883 -1.676 -8.838 -6.364h1.157c4.17 0.2 8.778 -7.681 8.778 -7.681l-15.322 -4.768c0.559 -2.175 1.137 -4.349 1.696 -6.524l1.736 0.499a0.299 0.299 0 0 0 0.359 -0.219c0 -0.259 0.1 -0.519 0.14 -0.778a16.14 16.14 0 0 0 7.202 -1.137c0.938 -0.399 3.711 -0.978 4.529 -3.232 1.616 -3.99 -1.416 -14.224 -1.456 -14.324s61.526 -0.698 66.374 -1.177c0.2 0.06 0.299 -0.419 -0.04 -0.419zm-15.102 -53.386a11.81 11.81 0 0 1 -16.1 9.017 11.651 11.651 0 0 1 -4.688 -3.511c3.332 -0.818 17.217 -4.469 20.788 -5.506zm-21.945 5.805a14.863 14.863 0 0 1 -23.162 5.127c0.259 -0.06 15.721 -3.332 23.122 -5.127zm-88.917 -36.828c1.476 0.499 10.514 3.511 13.566 4.489 -4.569 4.588 -12.189 2.813 -13.446 -2.334a7.122 7.122 0 0 1 -0.12 -2.155zm17.077 -84.329s7.98 2.334 9.975 2.933a5.686 5.686 0 0 1 -9.975 -2.933zm0.12 -17.955c3.172 6.703 6.464 13.367 9.736 19.95 -3.85 -1.117 -14.484 -4.469 -15.521 -4.808zm-21.945 10.374q5.626 1.995 11.292 3.99a6.544 6.544 0 0 1 -11.272 -3.95zm0.18 -0.479c6.923 -3.052 13.666 -6.564 20.269 -10.234l-6.504 14.823c-3.172 -0.998 -12.329 -4.07 -13.746 -4.549zm11.87 4.668c3.092 1.037 9.097 3.072 9.037 3.152a5.287 5.287 0 0 1 -5.606 1.636 5.207 5.207 0 0 1 -3.411 -4.748zm-53.466 77.147a6.564 6.564 0 0 1 -4.948 -5.726q6.484 1.855 12.968 3.83a9.975 9.975 0 0 1 -8.02 1.895zm-6.823 6.364a7.601 7.601 0 0 1 -10.653 -0.299 7.98 7.98 0 0 1 -1.855 -3.132zm105.735 83.271c0 0.299 0.778 5.546 0.838 6.384h-5.486c0 -0.299 0 -0.579 0.14 -0.878a18.334 18.334 0 0 0 2.394 -6.165 6.623 6.623 0 0 0 2.135 0.658zm-19.79 8.14a24.219 24.219 0 0 0 3.81 -0.439 3.99 3.99 0 0 0 0.16 0.698 4.948 4.948 0 0 0 2.314 5.167 5.127 5.127 0 0 0 6.204 -0.738 11.97 11.97 0 0 0 4.908 3.99c-0.18 0.898 -0.339 1.796 -0.519 2.713a51.451 51.451 0 0 1 -5.985 0.399 12.569 12.569 0 0 1 -5.546 -1.476 12.788 12.788 0 0 1 -6.324 -8.239 9.416 9.416 0 0 0 0.998 -2.075zm-0.718 0a5.426 5.426 0 0 1 -1.656 -1.576c1.995 0 3.99 0 5.985 -0.2v0.798c-0.618 0 -3.252 0.339 -3.99 0.319 -0.14 -0.02 -0.14 0.299 -0.319 0.658zm10.194 -1.277a0.778 0.778 0 0 1 -0.998 -0.299 1.037 1.037 0 0 1 0.978 -1.456 0.279 0.279 0 0 1 0.2 0.459l-0.14 0.12c0.678 0.439 0.14 1.077 -0.06 1.177zm0.539 5.207a3.272 3.272 0 0 0 1.875 -0.599 4.389 4.389 0 0 0 0.259 0.718 4.509 4.509 0 0 1 -7.82 -2.953 6.643 6.643 0 0 0 5.706 2.833zm2.314 -0.918a7.98 7.98 0 0 0 2.653 -3.99h5.686a40.419 40.419 0 0 1 -0.18 7.701c-0.379 1.137 -2.574 1.636 -2.613 1.616 -1.895 -1.197 -4.888 -2.933 -5.526 -5.327zm3.87 -22.364c1.337 1.037 0.579 2.354 -0.559 2.354a7.761 7.761 0 0 1 -0.359 0.818 0.319 0.319 0 0 1 -0.479 -0.2s0.14 -0.718 0.16 -0.778 -0.339 0.638 -0.439 0.658c-0.479 0.12 -0.718 -0.439 0 -1.017 -1.476 -1.277 -0.14 -3.092 1.696 -1.835zm-3.99 4.569a6.883 6.883 0 0 1 1.476 -0.638c-0.399 -0.379 -0.818 -0.778 -1.217 -1.197s0 -0.419 0.239 -0.299l1.736 1.297a10.155 10.155 0 0 1 1.855 -0.359c0.379 0 0.299 0.599 0 0.678l-1.157 0.239c0.319 0.279 0.658 0.539 0.978 0.838s0 0.858 -0.499 0.519l-1.337 -1.157c-0.638 0.16 -1.257 0.359 -1.995 0.459 -0.06 0.04 -0.219 -0.259 0 -0.379zm4.948 5.985a22.603 22.603 0 0 1 -2.733 6.244 1.436 1.436 0 0 1 -1.297 -0.239c-0.818 -0.678 -0.798 -2.314 -2.693 -3.012 0 0 -0.638 -0.698 0.898 -1.676 0.12 -0.16 0 -0.399 -0.2 -0.339 -1.476 0.698 -1.377 1.696 -1.337 1.855s-2.613 0.678 -3.791 -0.219c-0.379 -0.359 -0.898 -1.995 1.696 -5.985 0.219 -0.08 9.057 3.192 9.536 3.312zm-9.975 -3.711a15.062 15.062 0 0 0 -2.195 4.429 10.633 10.633 0 0 0 -1.436 5.985h-6.344c-1.017 -2.434 1.536 -4.229 3.352 -6.504 1.516 -1.995 1.995 -3.99 3.99 -5.147 0.259 0.02 2.474 0.978 2.793 1.177zm-4.19 -4.728c0.299 -0.419 1.277 -2.594 1.995 -1.576s-0.359 2.633 -0.638 3.132a0.339 0.339 0 0 0 0.379 0.499c0.239 0 0.758 -0.499 1.017 -0.12a8.918 8.918 0 0 1 -1.456 0.898 7.461 7.461 0 0 0 -2.793 3.132c-2.314 3.99 -5.526 5.646 -5.227 8.479a4.848 4.848 0 0 0 2.594 3.471 17.416 17.416 0 0 1 -1.337 1.995 20.788 20.788 0 0 0 -4.808 -9.177l-1.616 -1.995c5.766 -6.125 10.075 -6.105 12.05 -8.798zm28.728 -27.77a14.344 14.344 0 0 1 -24.219 4.409 0.419 0.419 0 0 0 -0.618 0 12.987 12.987 0 0 1 -18.394 5.706 18.972 18.972 0 0 1 5.307 -2.594c2.234 -0.838 4.389 -1.476 6.703 -2.494 10.613 -1.237 21.027 -3.052 31.381 -5.087zm-12.788 -39.661c1.676 7.322 8.219 9.676 12.608 6.943a0.259 0.259 0 0 0 0 0.2c2.175 3.771 2.155 9.476 -1.995 11.97 -3.112 1.995 -7.162 0.579 -9.636 -1.776 -4.19 -3.99 -3.392 -11.292 -10.394 -13.327l0.858 -1.995a8.598 8.598 0 0 0 8.718 -2.075zm-8.08 1.157 1.855 -4.469 5.985 2.434a7.8 7.8 0 0 1 -7.681 1.995zm13.805 5.287a9.696 9.696 0 0 1 -4.868 -6.823c3.431 1.397 11.83 5.007 12.608 5.367a6.524 6.524 0 0 1 -7.581 1.397zm-4.349 -27.671 15.701 26.813c-7.382 -3.431 -15.262 -6.464 -22.982 -9.676 0.16 -0.06 6.643 -15.421 7.441 -17.197zm-0.958 -0.16c-1.037 2.334 -7.98 16.578 -7.98 16.578 -3.99 -1.716 -17.297 -7.8 -19.95 -9.037 2.075 -0.339 27.511 -7.401 28.01 -7.601zm-14.504 14.683a8.419 8.419 0 0 1 -13.965 -6.763 299.25 299.25 0 0 0 13.965 6.723zm0.718 0.279 5.307 2.334 -2.234 4.11a7.98 7.98 0 0 1 -2.913 -6.504zM294.502 175.56a8.618 8.618 0 0 1 14.923 -3.591c2.494 3.172 2.933 7.561 5.985 10.394a9.696 9.696 0 0 0 8.918 2.693c5.087 -1.416 6.863 -7.8 4.728 -12.429 6.603 6.583 0.978 15.521 -6.763 16.279a15.641 15.641 0 0 1 -11.97 -3.89c-3.99 -3.511 -4.209 -7.481 -7.521 -8.718A5.666 5.666 0 0 0 297.255 177.555a8.499 8.499 0 0 0 -2.474 5.027 12.449 12.449 0 0 1 -0.279 -7.022zm3.99 1.756 -3.232 6.783c0 -0.219 -0.14 -0.439 -0.2 -0.678a7.761 7.761 0 0 1 3.531 -6.065zm-3.092 11.711c0.818 3.83 -1.596 6.344 -3.83 8.199zm-22.464 20.788a41.057 41.057 0 0 1 11.332 -7.282c7.222 -3.491 13.367 -7.062 11.79 -14.903l4.908 -10.494c0.219 6.384 5.007 11.97 3.99 19.032 -0.279 6.763 -5.985 11.671 -12.249 13.446 -6.484 2.314 -13.785 4.788 -15.541 11.97l-10.554 18.194c-4.748 -10.234 -1.576 -22.164 6.424 -29.925zm-4.209 34.952 1.616 2.234 -2.673 -0.16zm-1.377 2.693h3.292c7.002 8.638 4.349 14.504 4.17 14.883l-12.229 -5.486zm-5.127 0 -4.289 7.362c-1.995 -0.898 -3.571 -1.536 -3.99 -1.716 -1.197 -0.419 -1.676 0.579 -1.855 1.357a25.237 25.237 0 0 0 -3.372 -7.262c0.658 0 12.628 0.18 13.606 0.18zm-25.037 -11.332c26.793 20.688 10.833 44.229 10.793 44.628 -12.708 10.294 -21.546 25.356 -26.394 40.917a55.162 55.162 0 0 1 0.658 -37.905c3.83 -11.571 12.389 -20.608 2.414 -33.735 -0.958 -1.257 -9.217 -9.676 -9.616 -9.975l7.142 -17.955c4.11 5.905 9.975 9.756 15.102 13.985zM216.438 269.325c-2.494 -5.985 -3.312 -8.958 -7.441 -13.845l3.611 -9.097c0.638 0 5.985 0.2 7.98 0.12a28.708 28.708 0 0 1 7.302 11.112c2.554 8.199 -2.574 16.179 -5.446 23.721a133.984 133.984 0 0 0 -3.591 12.948l-0.698 -0.259a39.78 39.78 0 0 0 -1.716 -24.698zm-5.985 -34.693A39.262 39.262 0 0 1 203.49 207.48a11.411 11.411 0 0 0 10.593 -2.334 13.047 13.047 0 0 0 5.047 8.199c-0.08 0.359 -8.598 21.267 -8.598 21.267zm4.269 6.185c1.756 1.776 3.591 3.491 5.347 5.267 -1.815 -0.16 -6.703 -0.319 -7.302 -0.359zM261.824 161.595c-3.132 4.888 -12.169 5.067 -15.96 -0.878a9.556 9.556 0 0 1 -1.536 -4.948zm-5.327 -2.673 -9.377 -3.072 3.332 -9.776c2.633 2.973 7.86 7.541 6.045 12.848zm-6.304 -26.314 -2.594 7.042a7.78 7.78 0 0 1 2.594 -7.042zm-0.279 -32.558a11.85 11.85 0 0 1 2.713 -19.132 10.194 10.194 0 0 0 4.509 15.541c1.835 0.778 3.83 1.217 5.766 1.815l-2.893 7.601c-3.052 -2.434 -7.222 -3.092 -10.095 -5.825zm-2.414 8.997a6.623 6.623 0 0 0 -0.758 0.738c-3.99 3.99 -11.85 2.594 -12.668 -5.367 4.569 1.536 13.506 4.569 13.426 4.628zm8.778 8.479a9.975 9.975 0 0 1 -7.581 -6.803c-0.16 -0.499 -0.239 -1.037 -0.419 -1.556 2.175 0.738 11.252 3.791 13.626 4.489a9.676 9.676 0 0 1 -3.99 3.99 9.536 9.536 0 0 1 -1.636 -0.12zm-18.254 22.623c-1.995 -8.1 2.993 -13.746 9.656 -16.379a57.237 57.237 0 0 0 9.177 -4.608c3.152 -1.616 7.142 -4.648 5.985 -8.898l3.272 -10.653c8.379 4.708 8.598 17.037 0.678 23.601 -3.85 3.511 -9.257 4.13 -13.845 6.464s-7.421 6.324 -5.845 11.132l-3.272 8.918c-2.175 -2.594 -4.648 -4.549 -5.805 -9.576zM245.385 161.595a10.274 10.274 0 0 0 1.277 1.516 31.341 31.341 0 0 1 -3.651 4.908zm-9.975 -2.613a9.496 9.496 0 0 1 -8.918 -8.978c5.446 1.696 11.172 3.511 16.838 5.387A9.815 9.815 0 0 1 235.41 159.002zm-29.925 39.78c3.731 -11.032 15.182 -15.82 24.918 -20.608a40.419 40.419 0 0 0 16.718 -14.564 11.431 11.431 0 0 0 11.81 1.636 31.92 31.92 0 0 1 -11.81 17.257c-5.805 4.968 -13.367 7.98 -20.209 11.531a14.324 14.324 0 0 0 -7.541 9.676c-3.91 -1.357 -14.025 -4.888 -14.025 -4.908zm21.506 -3.99 -4.469 9.975 -2.633 -0.958a13.965 13.965 0 0 1 6.963 -8.978zm24.319 21.945a8.718 8.718 0 0 1 -15.681 -5.047 0.499 0.499 0 0 0 -0.818 -0.339 12.09 12.09 0 0 1 -9.536 3.272 11.85 11.85 0 0 1 -10.354 -10.554 0.459 0.459 0 0 0 -0.798 -0.319 10.713 10.713 0 0 1 -8.997 3.072 10.554 10.554 0 0 1 -8.898 -10.474c0.359 0.579 21.566 6.883 54.942 20.469zM193.196 195.291s1.556 0.678 2.314 0.938a11.152 11.152 0 0 0 7.062 10.913 39.9 39.9 0 0 0 7.581 28.349l-4.269 9.975c-1.736 0 -12.289 -0.579 -12.349 -0.519 -10.554 -3.551 -28.229 -9.536 -25.456 -23.242 2.833 -5.347 13.965 -11.372 13.965 -11.352a6.424 6.424 0 0 0 8.798 -1.117c0.14 0 4.608 2.155 5.486 2.414 0.259 0 0.379 -0.279 0.18 -0.419a96.039 96.039 0 0 0 -9.676 -4.209c4.569 -3.392 6.863 -6.504 6.364 -11.731zm12.409 50.773 -1.875 4.369a68.947 68.947 0 0 0 -8.598 -4.908c1.756 0.16 8.758 0.459 10.474 0.539zm-23.242 -35.91c1.037 -0.658 3.711 -2.494 3.99 -2.733 1.357 0.539 3.99 1.656 3.99 1.676a6.963 6.963 0 0 1 -7.98 1.037zm13.965 -56.079A16.379 16.379 0 0 1 187.53 156.528 60.768 60.768 0 0 0 195.191 153.615a12.868 12.868 0 0 0 1.237 0.439zm5.426 -12.15a11.711 11.711 0 0 1 -7.242 11.292C189.525 155.61 179.55 156.847 178.253 163.59c0 0.18 -7.002 15.96 -7.002 15.96 -2.574 -2.554 -5.985 -5.426 -7.042 -9.357 -2.594 -8.479 4.988 -14.863 13.267 -17.955 6.264 -1.835 18.833 -3.372 15.421 -12.628a3.771 3.771 0 0 0 -0.878 -1.137l2.893 -7.98a13.386 13.386 0 0 1 6.943 11.411zm-33.915 55.261L173.565 183.54c3.152 5.406 0.14 9.975 -4.588 13.965zm0.379 1.037c-1.237 1.057 -2.574 1.995 -3.99 2.993a8.858 8.858 0 0 1 -4.449 -6.623s6.025 2.454 8.598 3.611zm16.499 -53.586a7.98 7.98 0 0 1 -3.052 -11.192A9.656 9.656 0 0 1 191.52 129.276zm6.943 -5.646C194.014 141.645 192.498 145.854 189.525 147.63a8.519 8.519 0 0 1 -1.017 0.599zm-6.823 10.494c-1.995 0.539 -4.13 0.898 -6.464 1.636a7.441 7.441 0 0 1 -2.813 -4.988zm33.915 -26.773a9.756 9.756 0 0 1 -7.282 -7.581 0.399 0.399 0 0 0 -0.638 -0.16 11.352 11.352 0 0 1 -18.833 -6.244 0.379 0.379 0 0 0 -0.539 -0.219 11.431 11.431 0 0 1 -16.459 -5.466l3.85 -2.514c1.077 0.439 48.179 18.075 49.456 18.494a9.676 9.676 0 0 1 -9.317 3.671zm-4.19 -42.513c2.833 9.975 12.289 35.132 13.347 37.785 -2.534 -0.758 -24.12 -8.459 -25.935 -9.137 3.99 -9.596 7.98 -19.032 11.83 -28.688a3.551 3.551 0 0 1 0.998 0.02zm0.798 -6.264c-0.279 0.718 -1.456 3.731 -1.776 4.509a27.112 27.112 0 0 1 -2.793 -0.958zm-5.307 4.13c3.012 3.631 6.982 -0.838 -7.8 5.985 2.853 -2.055 5.446 -4.01 8.04 -6.005zM199.979 85.785c1.756 -0.818 10.414 -4.369 13.007 -5.267 -2.214 5.506 -9.975 24.12 -11.491 27.93 -5.865 -2.175 -20.509 -7.82 -21.945 -8.419 1.796 -1.157 15.501 -10.633 20.429 -14.244zm-3.99 1.875c-2.713 1.995 -14.324 9.975 -17.416 12.07l-3.99 -1.656c7.362 -3.192 14.364 -6.943 21.486 -10.414zm-21.945 10.833 3.99 1.676 -3.272 2.155a11.97 11.97 0 0 1 -0.718 -3.83zm0.2 5.047a11.97 11.97 0 0 0 17.137 5.825 12.409 12.409 0 0 0 5.247 7.441l-4.848 11.97a10.613 10.613 0 0 0 -8.738 2.454 8.379 8.379 0 0 0 1.696 13.845l-1.197 2.913c-8.359 -2.933 -30.404 -10.574 -33.077 -11.391 -0.299 0 -0.399 0.319 -0.12 0.439 1.995 0.758 3.87 1.476 5.825 2.175 0.758 8.259 11.332 13.127 18.733 7.282A8.259 8.259 0 0 0 177.555 151.401c-13.965 4.888 -19.711 15.96 -9.237 26.194 0.838 0.818 1.716 1.656 2.574 2.554L164.049 195.51c-10.593 -4.588 -21.466 -8.938 -32.239 -13.566 -0.2 -0.1 -0.399 0.2 -0.18 0.299 1.855 0.878 1.496 0.638 1.536 0.838a8.16 8.16 0 0 0 11.292 5.726 7.8 7.8 0 0 0 4.588 7.022 11.97 11.97 0 0 0 10.214 -0.519 9.556 9.556 0 0 0 2.673 5.087L159.6 204.527c-7.182 4.708 -11.671 7.501 -14.145 15.661a27.611 27.611 0 0 0 -20.888 -19.531c0.319 -2.733 0.638 -5.466 0.938 -8.199h0.618c0.2 0 1.756 -6.564 1.835 -6.923l1.257 -0.18a28.13 28.13 0 0 0 1.636 -9.556c1.217 -0.259 2.434 -0.519 3.671 -0.738a0.319 0.319 0 0 0 0.239 -0.319v-1.576a29.586 29.586 0 0 0 7.541 -6.723 28.987 28.987 0 0 0 4.648 -9.476c0.499 -1.436 2.893 -3.152 2.753 -4.229 -0.12 -0.658 -1.696 0.14 -1.456 0a9.217 9.217 0 0 0 0.858 -2.274 0.319 0.319 0 0 0 -0.239 -0.319c-0.379 0 -1.496 0.798 -1.696 0.978 0.319 -1.317 -0.299 -1.995 -0.778 -1.656a23.94 23.94 0 0 0 -1.496 2.653c-0.16 -0.579 -0.399 -1.197 -0.878 -1.157 -0.918 0 -0.16 1.496 -1.456 4.15 -7.022 8.618 -12.229 9.177 -12.229 9.217A16.698 16.698 0 0 0 125.087 163.59a0.599 0.599 0 0 0 -0.239 0.259 2.613 2.613 0 0 1 -2.254 -2.474 3.511 3.511 0 0 0 1.995 -1.357s3.99 0.938 3.052 -2.494a0.2 0.2 0 0 0 -0.379 0.16 1.616 1.616 0 0 1 -2.334 1.835 13.007 13.007 0 0 0 1.576 -7.062c0.12 0 0.758 0 0.778 -0.12a5.985 5.985 0 0 0 -11.571 -3.152 1.636 1.636 0 0 0 -1.995 0.758 2.873 2.873 0 0 0 -3.431 1.077 7.441 7.441 0 0 0 -0.738 2.594c-0.14 0.698 -0.539 1.616 -1.337 1.696s0.379 2.833 3.99 0.599a6.344 6.344 0 0 0 2.693 -3.411 1.716 1.716 0 0 0 1.097 0 9.436 9.436 0 0 0 -0.279 6.145 1.556 1.556 0 0 1 -1.596 -2.554c0.14 -0.12 0 -0.359 -0.2 -0.259 -1.855 1.097 -0.599 3.99 2.155 3.631 0 0 0.618 1.137 1.097 1.297a1.815 1.815 0 0 1 -1.995 2.294 0.519 0.519 0 0 0 -0.12 -0.279c-0.16 -0.2 -5.686 -1.995 -6.145 -1.556l-0.12 0.2c-2.833 -2.713 -2.334 -4.249 -3.272 -3.471a41.735 41.735 0 0 1 -2.753 -15.761A516.505 516.505 0 0 0 174.243 103.541zm0.16 42.095c-5.985 4.988 -15.401 2.793 -17.815 -6.304zm-15.082 48.578c-5.865 3.431 -14.284 1.297 -13.965 -5.985zm-14.903 -6.324A7.541 7.541 0 0 1 133.665 183.141c3.611 1.636 7.182 3.212 10.753 4.748zm-33.057 9.257a0.219 0.219 0 0 1 0 -0.439 9.975 9.975 0 0 0 5.147 -1.416 0.259 0.259 0 0 1 0.259 0.459 7.342 7.342 0 0 1 -2.494 1.077 19.631 19.631 0 0 1 -0.599 3.072h-0.479c0 -0.18 0.479 -2.813 0.499 -2.913a11.391 11.391 0 0 1 -2.334 0.16zm-10.394 -10.893s1.317 -3.052 1.456 -3.352a11.511 11.511 0 0 0 4.469 1.815 22.723 22.723 0 0 0 19.95 3.112c-0.339 1.297 -0.698 2.613 -0.938 3.99 -4.449 0.658 -10.314 2.234 -24.938 -5.566zm6.484 -25.356a13.406 13.406 0 0 0 1.137 1.117c-0.479 1.616 -1.656 4.748 -1.676 4.768a52.289 52.289 0 0 0 -4.329 3.771c-0.419 -0.439 -1.995 -2.314 -2.334 -2.833 0.638 -0.399 6.085 -5.586 7.202 -6.823zm-7.441 6.484c-0.219 -0.299 -0.399 -0.599 -0.599 -0.898a3.292 3.292 0 0 1 -0.618 -1.237c0 -0.798 5.805 -5.706 6.982 -6.763a13.965 13.965 0 0 0 1.357 1.995c-1.077 1.297 -6.544 6.344 -7.122 6.903zm24.598 -1.416a8.459 8.459 0 0 1 -9.676 -1.017 6.823 6.823 0 0 0 0.239 -1.317 3.99 3.99 0 0 0 1.257 -0.2 2.454 2.454 0 0 0 1.137 -3.072 1.855 1.855 0 0 1 -0.898 -1.037c1.875 -0.638 2.095 -1.995 2.953 -2.374a0.559 0.559 0 0 1 0.718 0.18 0.519 0.519 0 0 0 0.858 0.479 1.157 1.157 0 0 1 0.958 -0.2c0.978 0.239 0.798 1.476 1.995 2.314a4.289 4.289 0 0 1 -1.995 1.297 3.172 3.172 0 0 0 0.958 2.574 5.985 5.985 0 0 0 1.616 0.738c0.818 1.696 0.12 4.429 0 5.805a13.406 13.406 0 0 1 -10.853 -0.918c0.2 -0.818 0.778 -3.292 0.938 -3.87a8.339 8.339 0 0 0 9.975 0.978c0.12 -0.08 0.06 -0.399 -0.18 -0.359zm-10.434 -13.726a6.224 6.224 0 0 1 -2.234 2.933c-0.798 0.519 -2.434 1.237 -3.212 0.678 1.436 -0.698 1.397 -2.534 1.616 -3.531a2.414 2.414 0 0 1 3.132 -1.995 1.696 1.696 0 0 0 0.698 1.915zm-0.16 -1.337a1.217 1.217 0 0 1 1.556 -1.277 5.247 5.247 0 0 0 -0.239 1.377c0 0.319 0.818 0.299 0.978 0.279a1.217 1.217 0 0 1 -2.294 -0.379zm1.995 0a5.307 5.307 0 0 1 10.574 0.918 29.067 29.067 0 0 0 -10.494 -0.998zm0.279 1.337a1.995 1.995 0 0 0 0.599 -0.918 25.456 25.456 0 0 1 9.097 0.998 13.107 13.107 0 0 1 -1.516 6.923c-1.017 -0.918 -0.599 -1.995 -1.875 -2.594a2.155 2.155 0 0 0 -0.898 -0.239c0 -0.419 0.2 -2.773 -0.359 -2.713s-0.259 2.294 -0.259 2.693a1.297 1.297 0 0 0 -0.399 -0.339c-1.636 -0.818 -2.633 1.357 -3.591 1.995a3.292 3.292 0 0 1 -0.738 0.399 8.559 8.559 0 0 1 0.02 -6.284zm8.319 18.693c-0.16 1.596 -0.299 3.212 -0.599 5.227a13.287 13.287 0 0 1 -11.491 -1.616c0.279 -1.077 1.057 -4.19 1.157 -4.668a13.287 13.287 0 0 0 11.012 0.978zm-0.698 5.865c-0.319 1.995 -0.718 4.11 -1.117 6.145 -3.99 1.297 -9.456 -2.414 -11.551 -3.87 0.399 -1.357 0.798 -2.733 1.157 -4.11a13.227 13.227 0 0 0 11.591 1.756zM122.573 183.54a6.524 6.524 0 0 1 0 1.476c0 0.259 0 0.599 0.12 0.758a33.775 33.775 0 0 0 4.549 -0.239c0 0.319 -0.299 1.496 -0.379 1.776a23.082 23.082 0 0 1 -19.012 -2.534A1.995 1.995 0 0 0 109.725 183.54c0.539 -1.197 1.377 -3.99 1.416 -4.209 3.431 2.574 7.222 4.728 11.431 4.209zm21.346 -31.92a8.778 8.778 0 0 1 0.499 1.496 0.299 0.299 0 0 0 0.559 -0.16c0 -0.299 0.439 -0.758 0.599 -0.978a9.975 9.975 0 0 0 0.898 -1.716 7.86 7.86 0 0 1 -0.439 1.995c0 0.279 0.299 0.579 0.539 0.319a5.865 5.865 0 0 1 1.516 -1.476 8.938 8.938 0 0 1 -1.157 2.175l-0.2 0.14c-0.359 0.239 0 0.958 0.519 0.479a12.15 12.15 0 0 1 1.297 -0.539c-1.357 1.995 -1.875 1.835 -2.574 4.17a25.436 25.436 0 0 1 -11.431 15.062 82.713 82.713 0 0 0 -0.798 -8.918c4.19 -2.514 9.037 -5.885 9.975 -10.813 0 -0.419 0 -0.918 0.16 -1.277zm-9.975 22.843 -0.898 0.18a102.543 102.543 0 0 0 -1.237 -10.394 10.893 10.893 0 0 0 1.337 -0.519c0.399 3.511 0.738 7.062 0.878 10.673zm-1.317 0.259 -1.995 0.399a53.626 53.626 0 0 0 -0.399 -10.574 10.773 10.773 0 0 0 1.157 -0.219c0.279 1.676 1.137 8.598 1.317 10.334zM99.371 139.889c0.239 0.299 0.618 0 0.579 -0.339 0 -0.618 -0.14 -1.217 -0.16 -1.815a3.99 3.99 0 0 1 0.239 0.678 0.359 0.359 0 0 0 0.698 0 0.379 0.379 0 0 0 0.678 -0.12 9.177 9.177 0 0 1 0.399 -1.317 5.985 5.985 0 0 1 0.239 4.908l-2.833 1.257a17.596 17.596 0 0 0 -0.459 -3.791 3.751 3.751 0 0 1 0.618 0.539zm-0.259 3.99 2.973 -1.317a44.329 44.329 0 0 0 2.873 15.721s-3.691 3.491 -5.845 5.387c-4.409 -9.137 -0.499 -16.878 0 -19.87zm-58.992 18.793c-7.8 -3.332 -6.903 -14.404 0.978 -15.96a6.703 6.703 0 0 0 6.125 11.79 13.067 13.067 0 0 0 1.995 -0.918l2.813 2.773c-2.155 0.938 -6.304 4.628 -11.91 2.314zm13.626 -1.756a2.095 2.095 0 0 1 2.214 2.175c-0.698 -0.758 -1.456 -1.496 -2.214 -2.175zm10.434 32.738a15.761 15.761 0 0 1 -11.731 -22.364c1.656 -3.451 4.768 -5.327 4.329 -8.519a2.973 2.973 0 0 0 -3.771 -2.574l-3.012 -2.893c2.294 -1.297 4.748 -2.973 7.242 -2.115 3.591 1.197 4.11 5.985 3.372 9.057 -1.357 5.167 -5.307 11.332 -1.536 16.578a6.085 6.085 0 0 0 4.588 2.214c3.411 0.12 6.125 -1.835 8.658 -3.87 4.668 4.409 5.167 5.107 7.641 7.641a15.322 15.322 0 0 1 -15.78 6.843zm-4.09 -25.337c1.097 1.097 4.888 3.99 11.651 10.294a13.147 13.147 0 0 1 -7.721 3.631c-7.441 -0.219 -6.185 -9.057 -3.99 -13.666a1.377 1.377 0 0 0 0.06 -0.259zm17.955 15.342a3.99 3.99 0 0 1 3.451 3.571c-0.998 -1.077 -2.594 -2.673 -3.531 -3.571zm11.551 28.888A20.429 20.429 0 0 1 82.194 203.49a17.795 17.795 0 0 1 -1.017 -7.98c0.599 -4.329 2.973 -11.97 -3.571 -12.249 -0.2 0 0.219 0.12 -4.728 -4.529a19.092 19.092 0 0 1 7.401 -4.309 13.825 13.825 0 0 1 6.384 -0.2c12.668 3.631 10.554 15.202 5.706 23.601 -0.04 0.06 -5.586 8.598 -2.853 14.723zm8.618 -11.332 -4.529 -3.99c4.269 -7.701 5.446 -16.14 -1.656 -21.526a14.404 14.404 0 0 0 -16.858 0.279c-0.958 0.678 -1.875 1.436 -2.793 2.195 -2.653 -2.514 -9.975 -9.077 -11.97 -10.354a13.546 13.546 0 0 0 0.878 -9.337c10.953 -3.591 35.591 -13.666 37.207 -14.364v0.339c-1.995 5.985 -3.072 13.406 0.379 19.252a0.18 0.18 0 0 0 0.279 0 1.756 1.756 0 0 0 -0.778 1.436c0.239 1.736 4.588 6.324 5.985 7.382 0.2 0.14 0.479 0 0.279 -0.279a19.711 19.711 0 0 1 -1.476 -1.416c1.736 -1.416 3.471 -3.072 3.83 -3.392a88.578 88.578 0 0 1 -4.449 9.756c-0.998 1.855 -2.773 3.252 -0.259 5.347a37.745 37.745 0 0 0 -1.636 3.81 10.354 10.354 0 0 0 1.157 0.878 47.262 47.262 0 0 0 -3.671 13.985zm-38.803 44.329c-1.137 -5.147 2.773 -11.252 8.239 -11.551a6.763 6.763 0 0 1 6.464 4.549 22.224 22.224 0 0 1 1.436 6.544c-0.539 -0.1 -15.94 0.419 -16.14 0.459zm19.81 8.419c-4.229 -5.686 -1.576 -13.187 -5.985 -18.334a7.102 7.102 0 0 0 -7.681 -1.995c-10.454 3.711 -8.958 19.391 1.995 18.813a7.302 7.302 0 0 0 5.686 -4.429 7.382 7.382 0 0 1 -4.289 7.342 10.294 10.294 0 0 1 -10.713 -1.815C41.257 237.405 65.835 213.784 78.962 229.425c2.993 4.15 2.693 11.192 8.179 14.903s11.651 -0.519 15.96 -4.309c-0.998 6.204 -2.554 13.147 -3.99 19.052 -8.698 2.833 -16.14 -0.06 -19.89 -5.107zm93.167 105.555c-8.798 -0.18 -16.559 -2.713 -24.1 -3.032 1.197 -7.182 3.83 -32.399 -16.219 -49.875 -7.98 -7.022 -14.863 -8.239 -24.499 -10.534 -7.98 -1.995 -17.576 -5.187 -20.748 -13.666a15.621 15.621 0 0 1 0.918 -12.908c4.608 -6.963 10.334 -7.541 10.613 -7.601 -0.818 3.292 -3.571 14.184 -2.254 17.077 5.646 12.289 21.167 3.91 37.745 10.613a47.441 47.441 0 0 1 6.264 3.252c3.352 5.347 10.992 10.294 11.97 10.833a74.114 74.114 0 0 1 20.409 48.917c0 2.314 -0.1 4.608 -0.1 6.923zM119.7 220.288c-0.239 -0.239 1.656 -5.207 1.496 -5.426 9.416 3.791 12.808 16.279 13.267 18.494 0.02 0.06 -17.337 -15.401 -14.763 -13.067zm42.533 95.76H165.585c8.918 13.965 6.404 24.918 6.364 25.496 -0.379 -2.394 -3.372 -16.06 -9.696 -25.496zm21.945 32.758c-3.372 -0.658 -7.98 -3.99 -11.511 -1.616 0 -0.12 -0.279 -3.132 -0.279 -3.192a38.903 38.903 0 0 0 -18.633 -40.279 42.952 42.952 0 0 1 -11.97 -10.115c-13.726 -16.339 -3.491 -41.037 -5.985 -56.139 -1.776 -17.955 -14.623 -26.693 -24.598 -24.638L99.75 202.672c27.491 -6.344 44.728 1.796 47.102 29.925 0.818 1.995 -5.187 50.354 22.643 63.96a34.553 34.553 0 0 1 12.09 10.374 46.204 46.204 0 0 1 7.98 17.536c-3.312 17.396 -0.519 23.741 -0.399 24.1a8.958 8.958 0 0 1 -4.868 0.239zm-36.309 -113.535a27.012 27.012 0 0 0 7.202 7.98c-0.14 0 -7.082 0.239 -7.202 0.259 0.06 -2.633 0 -8.1 0 -8.239zm7.741 8.299c12.648 9.177 29.925 11.97 37.905 28.209 -0.718 2.195 -3.112 9.436 -4.449 9.975s-30.304 -12.748 -31.222 -14.623 3.99 -12.908 3.99 -12.908l-13.965 -9.197v-0.918c0.1 -0.1 7.421 -0.359 7.741 -0.539zm35.91 74.074c-0.379 1.357 -0.918 3.332 -1.397 5.187a44.369 44.369 0 0 0 -1.596 -5.187zm24.918 31.74A28.748 28.748 0 0 0 201.495 349.125c-3.99 0.638 -8.519 0.838 -11.751 -1.995 -5.985 -26.374 19.551 -54.583 2.354 -79.62 -12.11 -17.616 -35.79 -17.317 -44.289 -33.217a55.421 55.421 0 0 0 -1.995 -13.067c2.334 -7.182 4.509 -9.377 9.776 -13.127 10.414 -7.421 25.197 -14.763 18.414 -25.416l5.307 -12.808c5.985 14.224 14.065 17.576 13.187 28.568 -0.479 5.985 -8.339 9.636 -9.157 10.175a115.71 115.71 0 0 0 -11.771 7.84c-4.948 4.249 -5.287 7.002 -4.17 10.853a20.289 20.289 0 0 0 8.878 11.132c8.738 5.646 19.77 6.404 27.93 13.227 6.504 5.247 9.975 13.087 12.728 20.948 4.728 14.903 -0.998 25.815 -5.047 38.803a50.114 50.114 0 0 0 4.19 36.828 2.474 2.474 0 0 1 0.239 1.137zm-5.027 -31.721 8.738 0.419c0 0.239 1.377 4.11 1.476 4.11a129.276 129.276 0 0 0 -5.047 25.616c-4.848 -8.838 -7.102 -23.9 -5.287 -30.144zm21.027 35.91c-5.307 0.938 -10.673 -2.394 -15.481 -3.99 1.995 -19.631 7.481 -39.321 19.471 -55.301 20.648 -28.728 51.99 -22.344 35.91 -46.244 -0.958 -1.357 -1.995 -2.693 -2.913 -3.99l8.219 -16.1c2.933 10.673 16.519 16.399 15.362 28.469 -0.898 8.179 -6.663 12.489 -11.97 18.174 -22.284 20.269 -37.466 45.885 -41.177 75.81 -2.454 0.219 -5.606 2.713 -7.541 3.152zm9.815 -2.853a3.85 3.85 0 0 0 -1.995 -0.359 118.982 118.982 0 0 1 9.975 -34.194l16.559 -2.933c-11.152 9.696 -17.476 24.379 -19.81 39.242 -1.596 1.017 -3.431 -1.117 -4.848 -1.776zm32.1 5.985c-6.284 0.499 -9.696 -1.995 -13.825 -2.095 -4.668 -0.12 -8.818 2.414 -13.506 2.514 0.18 -1.357 1.596 -17.716 9.057 -29.147 7.362 -13.007 19.83 -23.042 34.354 -24.918 0.519 0 0.539 -0.898 0 -0.818l-0.998 0.14c1.057 -1.237 3.99 -4.748 6.743 -7.98 5.766 18.254 -25.117 36.369 -21.945 62.244zm14.324 -89.037a22.903 22.903 0 0 0 2.175 -2.993 20.349 20.349 0 0 0 17.337 7.421c-0.12 0.519 -0.259 1.037 -0.399 1.536zm23.94 18.354c3.611 10.613 16.878 9.576 17.516 -1.397a36.608 36.608 0 0 0 -0.439 -5.985c-1.157 -7.98 2.294 -18.254 11.352 -19.95a21.466 21.466 0 0 1 8.878 0c7.042 1.077 13.127 7.721 10.075 14.643 -1.536 3.052 -5.546 5.606 -9.137 4.229a15.322 15.322 0 0 0 4.648 -1.536c4.668 -3.791 1.556 -10.693 -3.671 -11.731a10.314 10.314 0 0 0 -9.017 2.214c-8.678 7.701 3.352 23.461 -5.546 34.873a18.613 18.613 0 0 1 -20.748 6.484c-12.189 -3.691 -11.97 -12.908 -18.374 -15.96l6.444 -7.98a57.257 57.257 0 0 0 7.98 2.035zm-4.489 -14.703a20.369 20.369 0 0 1 -17.157 -7.062 45.705 45.705 0 0 0 1.995 -4.389A16.738 16.738 0 0 0 309.225 267.33c-0.279 1.377 -1.057 3.99 -1.097 3.99zm3.332 -4.249 -1.696 -0.439c-5.805 1.416 -13.027 -1.995 -16.698 -7.222a16.379 16.379 0 0 0 0.559 -6.943c0.12 -0.12 0.638 -0.738 0.798 -0.938a12.788 12.788 0 0 0 11.711 9.975 41.775 41.775 0 0 0 6.464 -0.499zm11.651 -13.087c0.339 2.254 1.097 7.98 -0.738 9.416a16.838 16.838 0 0 1 -2.494 1.197 17.756 17.756 0 0 1 -7.661 1.636l1.556 -8.399c3.491 -0.219 3.372 -2.713 3.372 -6.224a61.426 61.426 0 0 0 -0.878 -10.494 13.965 13.965 0 0 0 2.534 0.2 35.91 35.91 0 0 1 4.389 12.668z" stroke-width="1"></path><path d="M118.982 154.034c0 0.16 0.16 0.299 0.319 0.259s0.12 -0.618 0.359 -1.177a0.299 0.299 0 0 0 -0.519 -0.299 1.416 1.416 0 0 0 -0.16 1.217zm4.708 0.419c0.14 0.419 0.519 0.339 0.579 0.12a1.536 1.536 0 0 1 0 -1.037 0.379 0.379 0 0 0 0 -0.16 0.14 0.14 0 0 0 -0.219 -0.14c-0.359 0.08 -0.359 1.177 -0.359 1.217zm-4.808 5.865a0.479 0.479 0 0 0 0.678 0.459c0.439 -0.219 1.357 -1.217 1.057 -1.636 -0.439 -0.738 -1.676 0.459 -1.736 1.177zM259.35 285.026a123.69 123.69 0 0 1 15.142 -11.97 0.239 0.239 0 0 0 -0.259 -0.419c-22.085 13.147 -42.354 40.439 -47.401 71.82 0 0.259 0.359 0.379 0.399 0.12a107.431 107.431 0 0 1 32.12 -59.551zm-217.116 -10.015a0.479 0.479 0 1 1 0 0.958 0.479 0.479 0 1 1 0 -0.958z" stroke-width="1"></path></g></svg>